<?xml version="1.0" encoding="iso-8859-1"?>
<!-- Generator: Adobe Illustrator 19.0.0, SVG Export Plug-In . SVG Version: 6.00 Build 0)  -->
<svg version="1.1" id="Capa_1" xmlns="http://www.w3.org/2000/svg" xmlns:xlink="http://www.w3.org/1999/xlink" x="0px" y="0px"
	 viewBox="0 0 60 60" style="enable-background:new 0 0 60 60;" xml:space="preserve" fill="#B5D3D3">
<g>
	<g>
		<path d="M41.213,31.171l13.895-12.536c4.175-3.855,4.666-10.227,1.099-14.2C56.163,4.386,52.048,0.069,45.5,3.289V2.128
			C45.5,0.955,44.545,0,43.372,0H16.628C15.455,0,14.5,0.955,14.5,2.128v1.095C7.975,0.02,3.837,4.317,3.797,4.363
			C0.224,8.341,0.715,14.713,4.9,18.575l13.548,12.223c1.872,2.098,4.295,3.692,7.052,4.53v3.481c-1.276,1.223-2,2.907-2,4.69
			s0.724,3.467,2,4.69V52h-2c-3.859,0-7,3.14-7,7v1h27v-1c0-3.86-3.141-7-7-7h-2v-3.81c1.276-1.223,2-2.907,2-4.69
			s-0.724-3.467-2-4.69v-3.481C37.092,34.541,39.39,33.086,41.213,31.171z M45.412,22.133c0.003-0.027,0.007-0.053,0.009-0.08
			c0.047-0.492,0.079-0.987,0.079-1.487V20.5V5.558c5.661-3.348,9.086,0.075,9.215,0.208c2.845,3.168,2.413,8.282-0.955,11.391
			l-8.987,8.109C45.096,24.253,45.304,23.203,45.412,22.133z M6.249,17.098c-3.377-3.117-3.81-8.23-0.982-11.379
			c0.1-0.102,1.688-1.689,4.446-1.689c1.334,0,2.942,0.372,4.787,1.462V20.5c0,0.482,0.029,0.96,0.073,1.434
			c0.013,0.137,0.031,0.272,0.047,0.408c0.041,0.348,0.094,0.694,0.159,1.037c0.026,0.135,0.05,0.271,0.079,0.405
			c0.084,0.39,0.184,0.776,0.298,1.157c0.02,0.066,0.035,0.134,0.055,0.2c0.006,0.02,0.01,0.04,0.016,0.059L6.249,17.098z M36.5,54
			c2.415,0,4.435,1.721,4.899,4H18.6c0.465-2.279,2.484-4,4.899-4h2h9H36.5z M32.863,46.972l-0.363,0.3V52h-5v-4.729l-0.363-0.3
			c-1.04-0.859-1.637-2.125-1.637-3.472s0.597-2.613,1.637-3.472l0.363-0.3v-3.942c0.088,0.015,0.174,0.02,0.262,0.033
			c0.291,0.042,0.58,0.086,0.876,0.112c0.424,0.04,0.847,0.062,1.269,0.064C29.938,35.995,29.968,36,30,36s0.062-0.005,0.093-0.005
			c0.422-0.003,0.844-0.025,1.269-0.064c0.296-0.026,0.586-0.069,0.876-0.112c0.088-0.013,0.174-0.018,0.262-0.033v3.942l0.363,0.3
			c1.04,0.859,1.637,2.125,1.637,3.472S33.903,46.113,32.863,46.972z M33.248,33.588c-0.531,0.132-1.056,0.229-1.578,0.297
			c-0.024,0.003-0.048,0.008-0.072,0.011c-1.07,0.134-2.128,0.134-3.198,0c-0.024-0.003-0.048-0.008-0.072-0.011
			c-0.522-0.068-1.046-0.165-1.578-0.297c-3.065-0.761-5.714-2.568-7.553-5.024c-0.179-0.239-0.353-0.479-0.515-0.727
			c-0.048-0.073-0.09-0.15-0.136-0.224c-0.232-0.37-0.441-0.75-0.634-1.136c-0.106-0.214-0.217-0.426-0.312-0.646
			c-0.061-0.14-0.109-0.283-0.165-0.425c-0.096-0.246-0.191-0.492-0.273-0.745c-0.046-0.141-0.085-0.285-0.127-0.427
			c-0.075-0.261-0.144-0.525-0.204-0.792c-0.032-0.142-0.062-0.283-0.089-0.426c-0.054-0.286-0.097-0.575-0.133-0.866
			c-0.016-0.127-0.035-0.254-0.047-0.382C16.525,21.35,16.5,20.928,16.5,20.5V4.387V2.128C16.5,2.058,16.557,2,16.628,2h26.744
			c0.07,0,0.128,0.058,0.128,0.128v2.326V20.5C43.5,26.822,39.125,32.129,33.248,33.588z"/>
		<path d="M36.988,20.007l5.428-5.292c0.272-0.266,0.37-0.663,0.253-1.025c-0.118-0.362-0.431-0.626-0.808-0.681l-7.501-1.09
			l-3.354-6.797c-0.168-0.341-0.516-0.558-0.896-0.558s-0.729,0.216-0.896,0.558l-3.355,6.797l-7.501,1.09
			c-0.377,0.055-0.689,0.319-0.808,0.681c-0.117,0.362-0.02,0.759,0.253,1.025l5.429,5.291l-1.281,7.471
			c-0.064,0.375,0.09,0.754,0.397,0.978c0.31,0.224,0.717,0.253,1.054,0.076l6.709-3.527l6.709,3.527
			c0.146,0.077,0.307,0.115,0.466,0.115c0.207,0,0.414-0.064,0.588-0.191c0.308-0.224,0.462-0.603,0.397-0.978L36.988,20.007z
			 M34.928,19.827l1.027,5.992l-5.381-2.829c-0.293-0.153-0.639-0.153-0.932,0l-5.381,2.829l1.027-5.992
			c0.056-0.324-0.052-0.655-0.287-0.885l-4.354-4.244l6.016-0.874c0.326-0.047,0.607-0.252,0.753-0.547l2.691-5.452l2.69,5.452
			c0.146,0.295,0.427,0.5,0.753,0.547l6.017,0.874l-4.354,4.244C34.98,19.172,34.873,19.503,34.928,19.827z"/>
	</g>
</g>
</svg>
