<?xml version="1.0" standalone="no"?>
<!DOCTYPE svg PUBLIC "-//W3C//DTD SVG 20010904//EN"
 "http://www.w3.org/TR/2001/REC-SVG-20010904/DTD/svg10.dtd">
<svg version="1.0" xmlns="http://www.w3.org/2000/svg"
 width="626.000000pt" height="626.000000pt" viewBox="0 0 626.000000 626.000000"
 preserveAspectRatio="xMidYMid meet">

<g transform="translate(0.000000,626.000000) scale(0.100000,-0.100000)"
fill="#000000" stroke="none">
<path d="M1818 5393 c-24 -29 -87 -140 -113 -204 -64 -150 -68 -253 -25 -561
44 -320 56 -437 45 -452 -6 -7 -37 -49 -70 -92 -55 -72 -154 -244 -141 -244 3
0 20 9 38 20 39 24 61 25 78 5 19 -23 -10 -95 -106 -262 -139 -240 -170 -308
-198 -433 -17 -75 -31 -210 -22 -210 3 0 25 21 48 46 112 122 170 65 93 -90
-57 -117 -85 -270 -68 -365 l8 -43 25 38 c39 59 83 84 149 84 63 0 66 -2 255
-124 116 -74 145 -89 129 -63 -4 6 -12 41 -18 77 l-11 64 -94 68 c-124 90
-165 108 -240 108 -33 0 -60 3 -60 7 0 3 22 56 49 118 55 123 70 194 51 249
-11 35 -50 66 -82 66 -46 1 -42 16 71 229 133 251 179 351 187 402 10 58 -4
109 -37 140 l-29 27 52 68 c29 38 91 107 138 154 197 194 415 309 691 364 123
25 124 24 -18 41 -103 13 -106 52 -7 101 42 21 70 27 122 28 89 0 144 -29 191
-101 51 -79 97 -98 236 -98 128 0 153 10 212 81 71 87 91 102 149 114 66 14
138 1 200 -35 78 -46 65 -79 -35 -90 -31 -3 -72 -10 -91 -14 l-35 -8 50 -7
c357 -53 653 -227 883 -519 l62 -79 -29 -27 c-33 -31 -47 -82 -37 -140 8 -50
56 -152 187 -402 60 -114 109 -209 109 -212 0 -3 -16 -9 -35 -13 -19 -3 -45
-17 -59 -31 -51 -51 -46 -131 19 -273 67 -148 68 -137 -18 -141 -74 -4 -74 -4
-200 -89 -116 -77 -127 -88 -127 -115 0 -16 -5 -47 -11 -68 -6 -21 -9 -43 -7
-48 2 -5 75 36 163 91 152 95 163 100 215 100 76 0 133 -35 162 -100 11 -24
11 -23 20 20 19 94 -9 248 -67 366 -37 75 -45 133 -21 153 20 17 48 1 114 -62
50 -49 52 -50 52 -25 0 58 -23 186 -47 263 -30 94 -69 174 -160 327 -115 194
-146 279 -111 301 13 9 26 7 55 -8 21 -11 42 -21 47 -23 20 -10 -84 171 -147
253 l-68 90 5 70 c3 39 21 185 41 325 38 277 43 390 20 490 -24 105 -160 364
-178 339 -194 -280 -425 -432 -738 -484 -114 -19 -146 -29 -229 -69 l-65 -31
-255 0 -255 0 -75 37 c-85 41 -139 58 -191 58 -19 0 -71 9 -115 21 -242 63
-429 184 -584 379 -40 49 -73 90 -75 90 -1 0 -9 -8 -17 -17z m160 -353 c52
-50 133 -116 179 -147 85 -56 223 -123 256 -123 64 0 -61 -66 -143 -76 -66 -7
-164 15 -226 51 -23 13 -62 46 -88 72 -52 52 -57 51 -76 -17 -13 -46 -13 -228
0 -309 6 -35 9 -66 6 -68 -8 -8 -43 68 -65 142 -43 145 -46 322 -7 450 16 50
50 115 62 115 3 0 49 -41 102 -90z m2436 47 c83 -141 79 -423 -9 -615 -14 -30
-27 -53 -30 -51 -2 3 0 34 5 69 21 141 10 330 -21 364 -4 5 -27 -11 -52 -36
-118 -122 -288 -158 -424 -92 -53 26 -68 44 -35 44 32 0 170 67 255 123 46 31
127 97 178 146 52 50 97 90 101 91 4 0 18 -19 32 -43z"/>
<path d="M3120 4478 c0 -6 -16 -34 -35 -62 -34 -50 -45 -90 -61 -210 -6 -54
-47 -106 -82 -106 -30 0 -85 42 -108 84 -21 37 -22 37 -29 16 -13 -40 -7 -109
12 -142 10 -16 51 -53 91 -80 107 -72 150 -138 178 -273 16 -78 33 -125 44
-125 11 0 28 47 44 125 28 134 71 201 178 273 86 58 108 91 108 160 0 79 -9
90 -34 46 -28 -50 -82 -87 -116 -79 -51 13 -70 44 -80 139 -11 95 -24 133 -64
185 -14 19 -26 41 -26 48 0 7 -4 13 -10 13 -5 0 -10 -5 -10 -12z m30 -340 c6
-24 18 -63 26 -88 13 -42 13 -49 -12 -122 -14 -43 -29 -78 -34 -78 -5 0 -20
36 -35 80 l-27 80 21 55 c12 31 21 66 21 79 0 23 7 36 21 36 5 0 13 -19 19
-42z"/>
<path d="M2412 4356 c-102 -38 -204 -116 -263 -202 l-28 -41 25 -24 c33 -31
48 -88 34 -138 -11 -42 -59 -91 -90 -91 -29 0 -61 33 -69 70 l-8 35 -49 -50
c-78 -79 -154 -256 -154 -357 l0 -37 25 24 c29 30 55 32 55 5 0 -11 -20 -55
-44 -98 -57 -99 -79 -189 -79 -317 0 -104 24 -222 61 -288 l17 -32 6 100 c7
114 31 190 80 262 35 50 126 143 141 143 20 0 4 18 -46 49 -62 39 -97 91 -80
119 6 9 26 26 45 37 46 27 168 25 260 -4 116 -36 249 -143 285 -228 29 -68 11
-188 -50 -331 -102 -238 -57 -413 190 -728 122 -156 210 -276 332 -454 62 -91
117 -165 122 -165 5 0 55 68 111 150 56 83 161 228 233 323 241 319 288 392
332 522 28 84 24 206 -11 295 -63 165 -77 212 -82 279 -6 85 6 120 66 188 94
106 230 168 376 171 84 2 134 -16 159 -55 18 -30 -16 -82 -78 -119 -31 -19
-56 -36 -56 -39 0 -3 19 -18 41 -35 48 -35 124 -133 149 -190 26 -60 40 -137
40 -218 1 -66 2 -70 16 -52 21 28 53 136 66 223 19 131 -16 297 -87 414 -37
60 -45 98 -20 98 9 0 26 -11 39 -25 13 -14 25 -25 28 -25 11 0 -13 123 -38
191 -33 93 -84 178 -131 220 l-38 32 -6 -34 c-8 -36 -40 -69 -69 -69 -29 0
-79 48 -89 88 -15 53 6 135 40 153 25 13 16 29 -56 108 -101 109 -230 171
-354 171 -37 0 -71 -3 -74 -7 -4 -3 24 -14 63 -24 155 -40 261 -149 276 -287
5 -39 2 -53 -18 -82 -36 -54 -86 -67 -191 -52 -141 20 -229 -7 -311 -98 -59
-66 -86 -148 -93 -285 -5 -90 -2 -111 26 -216 36 -135 39 -193 11 -281 -25
-79 -25 -119 -2 -149 l19 -22 1 32 c0 22 14 50 43 87 41 53 69 128 69 183 0
22 2 23 14 11 22 -23 112 -198 140 -271 55 -148 55 -266 -3 -393 -39 -87 -90
-141 -154 -163 -67 -23 -247 -25 -291 -3 -67 35 -57 77 31 131 137 84 176 128
175 200 -1 50 -39 120 -76 137 -24 12 -37 12 -91 -2 -80 -20 -213 -20 -285 -1
-30 8 -67 12 -83 9 -56 -12 -104 -112 -86 -179 14 -50 52 -90 129 -136 113
-67 141 -106 102 -142 -45 -41 -224 -47 -324 -12 -143 50 -233 308 -174 495
21 66 142 314 160 330 11 8 15 -1 20 -42 9 -63 30 -115 60 -148 33 -35 46 -64
46 -102 l0 -33 21 33 c24 37 22 89 -4 157 -25 62 -20 142 14 277 28 107 31
132 26 217 -6 132 -36 217 -99 286 -80 88 -149 107 -328 91 -72 -6 -90 -5
-120 11 -167 86 2 388 235 420 65 8 36 23 -45 22 -43 0 -87 -8 -128 -23z m-62
-603 c0 -29 51 -111 93 -150 68 -62 140 -77 247 -49 58 15 66 13 72 -19 4 -25
-36 -45 -108 -52 -110 -12 -255 52 -338 148 -34 39 -76 108 -76 124 0 3 19 15
43 25 39 18 43 18 55 3 6 -9 12 -23 12 -30z m1643 20 c27 -13 27 -14 12 -51
-57 -135 -247 -251 -393 -240 -73 5 -118 27 -114 53 6 33 16 36 61 20 73 -25
140 -20 212 18 78 40 123 95 140 172 13 60 17 61 82 28z m-1419 -20 c15 -8 48
-33 72 -55 44 -40 44 -41 23 -56 -14 -10 -36 -13 -70 -10 -40 4 -57 12 -85 39
-32 31 -59 92 -49 110 6 9 68 -7 109 -28z m1216 3 c0 -60 -73 -126 -139 -126
-32 0 -81 18 -81 30 0 13 104 88 150 109 63 28 70 26 70 -13z m-472 -1481
c101 0 115 -2 128 -19 8 -11 14 -24 14 -29 0 -25 -77 -77 -171 -116 -94 -39
-108 -43 -173 -39 -61 3 -87 11 -178 55 -108 52 -145 84 -132 117 11 28 51 37
147 31 53 -4 105 -2 122 4 17 6 52 7 80 3 28 -4 101 -7 163 -7z"/>
<path d="M2234 3364 c46 -117 58 -172 53 -236 -5 -64 -41 -168 -57 -168 -5 0
-12 15 -15 33 -4 17 -14 50 -23 71 -13 34 -17 37 -23 20 -4 -10 -8 -43 -8 -73
-1 -83 -28 -175 -82 -287 -57 -118 -62 -168 -28 -259 26 -69 87 -133 224 -235
225 -167 496 -483 660 -769 26 -45 78 -151 114 -234 36 -83 71 -152 78 -154
14 -5 42 46 77 141 124 329 473 784 776 1011 259 195 298 292 201 497 -49 104
-81 220 -81 297 0 76 -13 94 -32 44 -9 -21 -19 -53 -23 -70 -3 -18 -10 -33
-15 -33 -14 0 -49 96 -56 152 -7 62 9 155 37 210 11 21 19 40 19 43 0 14 -29
2 -52 -22 -65 -72 -102 -175 -103 -288 0 -79 1 -82 64 -207 96 -190 95 -252
-8 -400 -28 -40 -90 -116 -138 -169 -364 -397 -563 -686 -634 -921 -12 -38
-25 -68 -29 -68 -4 0 -18 33 -30 73 -63 209 -267 510 -580 857 -229 254 -265
312 -265 431 0 67 4 83 34 140 97 180 95 176 95 263 0 135 -62 277 -138 318
-16 9 -18 8 -12 -8z"/>
</g>
</svg>
